<?xml version="1.0" encoding="utf-8"?>
<!-- Generator: Adobe Illustrator 18.0.0, SVG Export Plug-In . SVG Version: 6.00 Build 0)  -->
<!DOCTYPE svg PUBLIC "-//W3C//DTD SVG 1.1//EN" "http://www.w3.org/Graphics/SVG/1.1/DTD/svg11.dtd">
<svg version="1.1" id="Ebene_1" xmlns="http://www.w3.org/2000/svg" xmlns:xlink="http://www.w3.org/1999/xlink" x="0px" y="0px"
	 viewBox="0 0 30 20" enable-background="new 0 0 30 20" xml:space="preserve">
<g>
	<path fill="#FFFFFF" d="M14.6,18.9c-1,0-2.1,0.1-3.1,0C9.1,18.8,7,18,5.5,16c-0.7-0.9-1.1-2.1-1.3-3.2C4,12.1,4,11.3,3.9,10.5
		c0-1.5,0.5-2.9,1.4-4.1C5.5,6.2,5.6,6,5.6,5.7c0-1.5,0.2-3,0.7-4.4C6.4,0.9,6.7,1,7,1.1c1,0.4,2,0.8,3,1.3c0.3,0.1,0.6,0.3,0.9,0.6
		c0.4,0.3,0.8,0.4,1.4,0.4c1.5-0.3,3.1-0.3,4.6,0c0.5,0.1,0.8-0.1,1.2-0.3c1.2-0.8,2.5-1.4,3.9-1.8C22.8,1,22.9,1,23.1,1.9
		c0.3,1.3,0.5,2.6,0.5,3.9c0,0.2,0.1,0.4,0.2,0.6c1.3,1.7,1.6,3.6,1.3,5.7c-0.2,1-0.4,2-0.9,3c-0.7,1.4-1.8,2.3-3.2,3
		c-1.2,0.6-2.5,0.8-3.8,0.8C16.4,19,15.5,18.9,14.6,18.9C14.6,18.9,14.6,18.9,14.6,18.9z M14.6,18.1c1.5-0.2,3-0.3,4.5-0.6
		c0.9-0.2,1.8-0.5,2.4-1.3c0.8-1,1-2.2,0.8-3.5c-0.1-1.1-0.7-1.9-1.6-2.5c-1-0.6-2.1-0.6-3.2-0.5c-2.1,0.2-4.2,0.2-6.3,0
		c-1-0.1-1.9,0-2.8,0.5c-1.9,1-2,3.4-1.4,5.2c0.5,1.3,1.6,1.9,2.9,2.2C11.5,17.7,13.1,17.9,14.6,18.1z"/>
	<path fill="#FFFFFF" d="M9.4,13.7c0-0.8,0.2-1.3,0.6-1.8c0.5-0.6,1.2-0.6,1.8,0c0.8,0.8,0.9,2.3,0.2,3.2c-0.3,0.4-0.7,0.7-1.2,0.6
		c-0.6-0.1-0.9-0.5-1.2-1C9.5,14.3,9.4,13.9,9.4,13.7z"/>
	<path fill="#FFFFFF" d="M19.8,13.7c-0.2,0.4-0.3,1-0.6,1.4c-0.6,0.9-1.5,0.7-2.1-0.2c-0.5-0.8-0.5-1.7,0-2.6
		c0.3-0.5,0.7-0.8,1.3-0.8c0.5,0,1.1,0.5,1.2,1.1C19.7,12.8,19.7,13.2,19.8,13.7z"/>
</g>
</svg>
